<?xml version="1.0" encoding="UTF-8" standalone="no"?>
<!-- Created with Inkscape (http://www.inkscape.org/) -->

<svg
   width="80.099998mm"
   height="30mm"
   viewBox="0 0 80.099999 30"
   version="1.1"
   id="svg1"
   inkscape:version="1.3.2 (091e20e, 2023-11-25, custom)"
   sodipodi:docname="logo_v2_thin_path.svg"
   xml:space="preserve"
   xmlns:inkscape="http://www.inkscape.org/namespaces/inkscape"
   xmlns:sodipodi="http://sodipodi.sourceforge.net/DTD/sodipodi-0.dtd"
   xmlns="http://www.w3.org/2000/svg"
   xmlns:svg="http://www.w3.org/2000/svg"><sodipodi:namedview
     id="namedview1"
     pagecolor="#ffffff"
     bordercolor="#999999"
     borderopacity="1"
     inkscape:showpageshadow="2"
     inkscape:pageopacity="0"
     inkscape:pagecheckerboard="0"
     inkscape:deskcolor="#d1d1d1"
     inkscape:document-units="mm"
     inkscape:zoom="3.2409231"
     inkscape:cx="103.98272"
     inkscape:cy="-55.0769"
     inkscape:window-width="3840"
     inkscape:window-height="2054"
     inkscape:window-x="-11"
     inkscape:window-y="-11"
     inkscape:window-maximized="1"
     inkscape:current-layer="layer4" /><defs
     id="defs1" /><g
     inkscape:groupmode="layer"
     id="layer4"
     inkscape:label="Tekst"
     style="display:inline"><path
       d="m 31.894977,22.944635 q -2.561551,0 -4.329702,-0.97475 -1.745482,-0.974749 -2.652226,-2.810906 -0.906744,-1.836157 -0.906744,-4.397708 0,-1.904163 0.498709,-3.422959 0.521378,-1.5187963 1.496127,-2.5615519 0.997419,-1.0654242 2.402872,-1.6321392 1.428122,-0.5893836 3.218941,-0.5893836 1.428122,0 2.765569,0.4080348 1.337448,0.3853662 2.380203,1.246773 0.272024,0.2040174 0.340029,0.453372 0.06801,0.2493546 -0.02267,0.4987092 -0.06801,0.2493546 -0.249355,0.4307034 -0.15868,0.1586802 -0.430703,0.1813488 -0.249355,0.022669 -0.521378,-0.1586802 -0.929413,-0.7253952 -1.972168,-1.0427556 -1.042756,-0.340029 -2.312197,-0.340029 -1.813488,0 -3.08293,0.7707324 -1.246773,0.7707324 -1.904162,2.2215229 -0.634721,1.45079 -0.634721,3.536302 0,3.173604 1.473459,4.85108 1.496127,1.677476 4.488383,1.677476 1.088092,0 2.130848,-0.204017 1.042756,-0.226686 1.972168,-0.612052 l -0.408035,1.065424 v -5.644481 h -3.241609 q -0.408035,0 -0.612053,-0.204018 -0.204017,-0.204017 -0.204017,-0.544046 0,-0.362698 0.204017,-0.544047 0.204018,-0.181348 0.612053,-0.181348 h 4.057679 q 0.385366,0 0.589384,0.204017 0.204017,0.204017 0.204017,0.589384 v 5.916504 q 0,0.340029 -0.113343,0.566715 -0.113343,0.226686 -0.385366,0.340029 -0.952081,0.385366 -2.289529,0.65739 -1.314779,0.249354 -2.561552,0.249354 z m 12.263709,0 q -1.63214,0 -2.493546,-0.997418 -0.861407,-0.997419 -0.861407,-2.856244 V 7.5299871 q 0,-0.453372 0.226686,-0.680058 0.226686,-0.2493546 0.680058,-0.2493546 0.430703,0 0.680058,0.2493546 0.249354,0.226686 0.249354,0.680058 V 18.954962 q 0,1.224104 0.476041,1.836156 0.498709,0.589384 1.45079,0.589384 0.204018,0 0.362698,-0.02267 0.15868,-0.02267 0.31736,-0.02267 0.249355,-0.02267 0.340029,0.113343 0.113343,0.136011 0.113343,0.544046 0,0.408035 -0.181348,0.612052 -0.181349,0.204018 -0.589384,0.272023 -0.181349,0.02267 -0.385366,0.04534 -0.204018,0.02267 -0.385366,0.02267 z m 7.820675,0 q -1.609471,0 -2.788238,-0.702726 -1.178767,-0.702727 -1.836156,-1.972169 -0.634721,-1.29211 -0.634721,-3.037592 0,-1.314779 0.362697,-2.357534 0.362698,-1.065425 1.065425,-1.813488 0.702726,-0.748064 1.654807,-1.13343 0.97475,-0.408035 2.176186,-0.408035 1.609471,0 2.788238,0.702726 1.178767,0.702727 1.813488,1.994837 0.657389,1.269442 0.657389,3.014924 0,1.314779 -0.362697,2.357534 -0.362698,1.042756 -1.065425,1.813488 -0.702726,0.748064 -1.677476,1.156099 -0.952081,0.385366 -2.153517,0.385366 z m 0,-1.473459 q 1.020087,0 1.790819,-0.498709 0.770733,-0.498709 1.178768,-1.45079 0.430703,-0.952082 0.430703,-2.289529 0,-2.062843 -0.929413,-3.150935 -0.906744,-1.088093 -2.470877,-1.088093 -1.042756,0 -1.813488,0.498709 -0.748064,0.476041 -1.178767,1.428122 -0.408035,0.929412 -0.408035,2.312197 0,2.040174 0.929413,3.150935 0.929412,1.088093 2.470877,1.088093 z m 11.74233,1.473459 q -1.020087,0 -2.062842,-0.249354 -1.020087,-0.249355 -1.904163,-0.861407 -0.226686,-0.15868 -0.31736,-0.362698 -0.09067,-0.226686 -0.06801,-0.430703 0.04534,-0.226686 0.181349,-0.385366 0.15868,-0.158681 0.362697,-0.181349 0.226686,-0.04534 0.49871,0.09067 0.884075,0.544047 1.700145,0.770733 0.838738,0.204017 1.654807,0.204017 1.292111,0 1.9495,-0.476041 0.657389,-0.47604 0.657389,-1.29211 0,-0.634721 -0.430703,-0.997418 -0.430703,-0.385366 -1.360116,-0.589384 l -2.062843,-0.453372 q -1.428121,-0.294692 -2.130848,-1.020087 -0.680058,-0.725395 -0.680058,-1.881494 0,-1.020087 0.521378,-1.745482 0.544046,-0.748064 1.518796,-1.156098 0.97475,-0.408035 2.26686,-0.408035 0.997418,0 1.881494,0.272023 0.906744,0.249355 1.632139,0.81607 0.226686,0.15868 0.294692,0.385366 0.09067,0.204017 0.02267,0.430703 -0.04534,0.204018 -0.204017,0.362698 -0.15868,0.136011 -0.385366,0.15868 -0.226686,0.02267 -0.476041,-0.136012 -0.680058,-0.453372 -1.382784,-0.657389 -0.702727,-0.226686 -1.382785,-0.226686 -1.269442,0 -1.926831,0.498709 -0.657389,0.498709 -0.657389,1.314779 0,0.634721 0.408034,1.042756 0.408035,0.408034 1.269442,0.589383 l 2.062843,0.430704 q 1.473459,0.31736 2.198854,1.020087 0.748064,0.680058 0.748064,1.858825 0,1.496127 -1.201436,2.380203 -1.201436,0.884075 -3.196273,0.884075 z m 9.407484,4.035011 q -0.340029,0 -0.544046,-0.181349 -0.204018,-0.181349 -0.249355,-0.498709 -0.02267,-0.294692 0.113343,-0.612052 l 1.564134,-3.513633 v 0.793401 L 69.660879,12.857108 q -0.136011,-0.340029 -0.09067,-0.634721 0.04534,-0.294691 0.272023,-0.47604 0.226686,-0.181349 0.634721,-0.181349 0.362698,0 0.566715,0.15868 0.204017,0.15868 0.362698,0.566715 l 3.71765,9.112777 H 74.51196 l 3.762987,-9.112777 q 0.181349,-0.408035 0.385367,-0.566715 0.204017,-0.15868 0.589383,-0.15868 0.362698,0 0.544047,0.181349 0.204017,0.181349 0.226686,0.47604 0.04534,0.272024 -0.09068,0.612053 l -5.803161,13.419811 q -0.181349,0.408035 -0.408035,0.566715 -0.204018,0.15868 -0.589384,0.15868 z"
       id="text3"
       aria-label="Glosy" /></g><g
     inkscape:groupmode="layer"
     id="layer3"
     inkscape:label="pasek"><path
       id="rect1"
       style="font-variation-settings:'wght' 900;display:inline;fill:#000000;fill-opacity:1;stroke-width:0.234927"
       d="m 4.5532332,1.0736775 c 0,0 -0.025521,-0.77245655 0.8803523,-0.77570617 0.905873,-0.00325 0.9149371,0.77570617 0.9149371,0.77570617 l 0.00418,27.5619685 c 0,0 0.059783,0.845077 -0.9129145,0.828576 -0.9726951,-0.0165 -0.8823722,-0.814144 -0.8823722,-0.814144 z"
       sodipodi:nodetypes="czcczcc" /><path
       id="path1"
       style="font-variation-settings:'wght' 900;fill:#000000;fill-opacity:1;stroke-width:0.122504"
       d="m 0.26893783,12.042557 c 0,0 -8.5558e-4,-0.875921 0.87752487,-0.866669 0.8783804,0.0093 0.9031287,0.744212 0.9031287,0.744212 l 0.017986,5.847921 c 0,0 0.08982,0.861452 -0.8818905,0.887653 -0.97171,0.0262 -0.90775607,-0.831527 -0.90775607,-0.831527 z"
       sodipodi:nodetypes="czcczcc" /><path
       id="path2"
       style="font-variation-settings:'wght' 900;fill:#000000;fill-opacity:1;stroke-width:0.15647"
       d="m 8.7499249,9.5474518 c 0,0 -0.02001,-0.8666963 0.9053784,-0.8682544 0.9253857,-0.00156 0.8944647,0.8702969 0.8944647,0.8702969 L 10.53809,20.19017 c 0,0 0.138095,0.960462 -0.8520287,0.967698 -0.9901204,0.0072 -0.9271544,-0.962622 -0.9271544,-0.962622 z"
       sodipodi:nodetypes="czcczcc" /><path
       id="path3"
       style="font-variation-settings:'wght' 900;fill:#000000;fill-opacity:1;stroke-width:0.201476"
       d="m 13.243697,5.1758921 c 0,0 -0.02296,-0.9469997 0.909709,-0.9495794 0.932671,-0.00258 0.889783,0.9223465 0.889783,0.9223465 l -0.0087,19.5501438 c 0,0 0.06584,0.923906 -0.888226,0.911981 -0.954063,-0.01193 -0.90557,-1.000524 -0.90557,-1.000524 z"
       sodipodi:nodetypes="czcczcc" /></g></svg>
