<?xml version="1.0" encoding="UTF-8" standalone="no"?>
<!-- Created with Inkscape (http://www.inkscape.org/) -->

<svg
   width="15.2mm"
   height="30mm"
   viewBox="0 0 15.2 30"
   version="1.1"
   id="svg1"
   inkscape:version="1.3.2 (091e20e, 2023-11-25, custom)"
   sodipodi:docname="logo_thin.svg"
   xml:space="preserve"
   xmlns:inkscape="http://www.inkscape.org/namespaces/inkscape"
   xmlns:sodipodi="http://sodipodi.sourceforge.net/DTD/sodipodi-0.dtd"
   xmlns="http://www.w3.org/2000/svg"
   xmlns:svg="http://www.w3.org/2000/svg"><sodipodi:namedview
     id="namedview1"
     pagecolor="#ffffff"
     bordercolor="#999999"
     borderopacity="1"
     inkscape:showpageshadow="2"
     inkscape:pageopacity="0"
     inkscape:pagecheckerboard="0"
     inkscape:deskcolor="#d1d1d1"
     inkscape:document-units="mm"
     inkscape:zoom="3.2409231"
     inkscape:cx="103.82844"
     inkscape:cy="18.976075"
     inkscape:window-width="3840"
     inkscape:window-height="2054"
     inkscape:window-x="-11"
     inkscape:window-y="-11"
     inkscape:window-maximized="1"
     inkscape:current-layer="layer3" /><defs
     id="defs1" /><g
     inkscape:groupmode="layer"
     id="layer3"
     inkscape:label="pasek"><path
       id="rect1"
       style="font-variation-settings:'wght' 900;display:inline;fill:#000000;fill-opacity:1;stroke-width:0.234927"
       d="m 4.5532332,1.0736775 c 0,0 -0.025521,-0.77245655 0.8803523,-0.77570617 0.905873,-0.00325 0.9149371,0.77570617 0.9149371,0.77570617 l 0.00418,27.5619685 c 0,0 0.059783,0.845077 -0.9129145,0.828576 -0.9726951,-0.0165 -0.8823722,-0.814144 -0.8823722,-0.814144 z"
       sodipodi:nodetypes="czcczcc" /><path
       id="path1"
       style="font-variation-settings:'wght' 900;fill:#000000;fill-opacity:1;stroke-width:0.122504"
       d="m 0.26893783,12.042557 c 0,0 -8.5558e-4,-0.875921 0.87752487,-0.866669 0.8783804,0.0093 0.9031287,0.744212 0.9031287,0.744212 l 0.017986,5.847921 c 0,0 0.08982,0.861452 -0.8818905,0.887653 -0.97171,0.0262 -0.90775607,-0.831527 -0.90775607,-0.831527 z"
       sodipodi:nodetypes="czcczcc" /><path
       id="path2"
       style="font-variation-settings:'wght' 900;fill:#000000;fill-opacity:1;stroke-width:0.15647"
       d="m 8.7499249,9.5474518 c 0,0 -0.02001,-0.8666963 0.9053784,-0.8682544 0.9253857,-0.00156 0.8944647,0.8702969 0.8944647,0.8702969 L 10.53809,20.19017 c 0,0 0.138095,0.960462 -0.8520287,0.967698 -0.9901204,0.0072 -0.9271544,-0.962622 -0.9271544,-0.962622 z"
       sodipodi:nodetypes="czcczcc" /><path
       id="path3"
       style="font-variation-settings:'wght' 900;fill:#000000;fill-opacity:1;stroke-width:0.201476"
       d="m 13.243697,5.1758921 c 0,0 -0.02296,-0.9469997 0.909709,-0.9495794 0.932671,-0.00258 0.889783,0.9223465 0.889783,0.9223465 l -0.0087,19.5501438 c 0,0 0.06584,0.923906 -0.888226,0.911981 -0.954063,-0.01193 -0.90557,-1.000524 -0.90557,-1.000524 z"
       sodipodi:nodetypes="czcczcc" /></g></svg>
