<?xml version="1.0" encoding="UTF-8" standalone="no"?>
<!-- Created with Inkscape (http://www.inkscape.org/) -->

<svg
   width="84.099998mm"
   height="30mm"
   viewBox="0 0 84.099999 30"
   version="1.1"
   id="svg1"
   inkscape:version="1.3.2 (091e20e, 2023-11-25, custom)"
   sodipodi:docname="logo_v2_path.svg"
   xml:space="preserve"
   xmlns:inkscape="http://www.inkscape.org/namespaces/inkscape"
   xmlns:sodipodi="http://sodipodi.sourceforge.net/DTD/sodipodi-0.dtd"
   xmlns="http://www.w3.org/2000/svg"
   xmlns:svg="http://www.w3.org/2000/svg"><sodipodi:namedview
     id="namedview1"
     pagecolor="#ffffff"
     bordercolor="#999999"
     borderopacity="1"
     inkscape:showpageshadow="2"
     inkscape:pageopacity="0"
     inkscape:pagecheckerboard="0"
     inkscape:deskcolor="#d1d1d1"
     inkscape:document-units="mm"
     inkscape:zoom="2.2916787"
     inkscape:cx="93.381328"
     inkscape:cy="25.9635"
     inkscape:window-width="3840"
     inkscape:window-height="2054"
     inkscape:window-x="-11"
     inkscape:window-y="-11"
     inkscape:window-maximized="1"
     inkscape:current-layer="layer3" /><defs
     id="defs1" /><g
     inkscape:groupmode="layer"
     id="layer3"
     inkscape:label="pasek"><path
       id="rect1"
       style="font-variation-settings:'wght' 900;display:inline;fill:#000000;fill-opacity:1;stroke-width:0.308224"
       d="m 6.1407532,1.0736775 c 0,0 -0.031509,-1.04665966 1.5278036,-1.04990928 C 9.2278693,0.0205186 9.2310506,1.0736775 9.2310506,1.0736775 l 0.0072,27.5619685 c 0,0 0.090486,1.357404 -1.5838541,1.340903 -1.6743406,-0.0165 -1.5064434,-1.326471 -1.5064434,-1.326471 z"
       sodipodi:nodetypes="czcczcc" /><path
       id="path1"
       style="font-variation-settings:'wght' 900;fill:#000000;fill-opacity:1;stroke-width:0.159823"
       d="m 0.26893783,12.042557 c 0,0 0.0476718,-1.128476 1.54274807,-1.119224 1.4950763,0.0093 1.488072,0.996767 1.488072,0.996767 l 0.030614,5.847921 c 0,0 0.1283162,1.251109 -1.5256148,1.27731 -1.65393101,0.0262 -1.5205121,-1.221184 -1.5205121,-1.221184 z"
       sodipodi:nodetypes="czcczcc" /><path
       id="path2"
       style="font-variation-settings:'wght' 900;fill:#000000;fill-opacity:1;stroke-width:0.204251"
       d="m 11.92495,9.5474518 c 0,0 -0.03409,-1.2130581 1.542748,-1.2146162 1.576839,-0.00156 1.524151,1.2166587 1.524151,1.2166587 l -0.0199,10.6406757 c 0,0 0.161532,1.335687 -1.525614,1.342923 -1.687146,0.0072 -1.50608,-1.337847 -1.50608,-1.337847 z"
       sodipodi:nodetypes="czcczcc" /><path
       id="path3"
       style="font-variation-settings:'wght' 900;fill:#000000;fill-opacity:1;stroke-width:0.262807"
       d="m 17.802017,5.1758921 c 0,0 -0.03907,-1.2123241 1.54785,-1.2149038 1.586919,-0.00258 1.513946,1.1876709 1.513946,1.1876709 l -0.0148,19.5501438 c 0,0 0.07729,1.20964 -1.546024,1.197715 -1.623317,-0.01193 -1.50608,-1.286258 -1.50608,-1.286258 z"
       sodipodi:nodetypes="czcczcc" /></g><g
     inkscape:groupmode="layer"
     id="g1"
     inkscape:label="Tekst"
     style="display:inline"><path
       d="m 34.170324,22.967304 q -2.652226,0 -4.488382,-0.997419 -1.813488,-0.997418 -2.76557,-2.833575 -0.952081,-1.836156 -0.952081,-4.352371 0,-1.904162 0.544046,-3.422958 0.566715,-1.5187967 1.609471,-2.5842209 1.065424,-1.0880928 2.584221,-1.6548078 1.518796,-0.5893836 3.445627,-0.5893836 1.269441,0 2.538883,0.3173604 1.29211,0.2946918 2.42554,1.020087 0.385366,0.2493546 0.498709,0.6120522 0.136012,0.3626976 0.04534,0.7480638 -0.09067,0.3626976 -0.340029,0.6347208 -0.249355,0.2720231 -0.634721,0.3400291 -0.362698,0.06801 -0.81607,-0.181349 -0.861407,-0.4987091 -1.745482,-0.7253951 -0.884075,-0.226686 -1.972168,-0.226686 -1.677477,0 -2.833575,0.680058 -1.156099,0.6573891 -1.745482,1.9268311 -0.566715,1.269442 -0.566715,3.105598 0,2.788238 1.337447,4.239028 1.337447,1.450791 3.967005,1.450791 0.906744,0 1.836157,-0.181349 0.929412,-0.181349 1.813488,-0.498709 l -0.566715,1.29211 V 16.257398 H 34.89572 q -0.566715,0 -0.884076,-0.294692 -0.294692,-0.294691 -0.294692,-0.793401 0,-0.521377 0.294692,-0.793401 0.317361,-0.272023 0.884076,-0.272023 h 3.740319 q 0.566715,0 0.861406,0.317361 0.317361,0.294691 0.317361,0.861406 v 5.50847 q 0,0.498709 -0.204018,0.838738 -0.181348,0.340029 -0.612052,0.49871 -0.997418,0.362697 -2.289528,0.612052 -1.292111,0.226686 -2.538884,0.226686 z m 12.513069,0 q -1.881493,0 -2.833575,-1.065424 -0.952081,-1.088093 -0.952081,-3.173604 V 8.0060277 q 0,-0.7027266 0.362698,-1.0654242 0.362697,-0.3626976 1.042755,-0.3626976 0.680058,0 1.042756,0.3626976 0.385366,0.3626976 0.385366,1.0654242 V 18.592264 q 0,1.042756 0.430704,1.541465 0.453372,0.498709 1.269441,0.498709 0.181349,0 0.340029,0 0.15868,-0.02267 0.317361,-0.04534 0.31736,-0.04534 0.430703,0.181349 0.113343,0.204017 0.113343,0.861406 0,0.566715 -0.226686,0.884076 -0.226686,0.31736 -0.748064,0.385366 -0.226686,0.02267 -0.47604,0.04534 -0.249355,0.02267 -0.49871,0.02267 z m 8.387408,0 q -1.722814,0 -2.992255,-0.702727 -1.269442,-0.702726 -1.972169,-1.994837 -0.702726,-1.314778 -0.702726,-3.082929 0,-1.337448 0.385366,-2.380203 0.408035,-1.065424 1.156099,-1.813488 0.748063,-0.770733 1.790819,-1.156099 1.042756,-0.408035 2.334866,-0.408035 1.722813,0 2.992255,0.702727 1.269442,0.702727 1.972168,1.994837 0.702727,1.29211 0.702727,3.060261 0,1.337447 -0.408035,2.402871 -0.385366,1.065425 -1.13343,1.836157 -0.748064,0.748064 -1.790819,1.156099 -1.042756,0.385366 -2.334866,0.385366 z m 0,-2.153517 q 0.838738,0 1.473459,-0.408035 0.634721,-0.408035 0.97475,-1.201436 0.362697,-0.816069 0.362697,-2.017505 0,-1.813488 -0.770732,-2.697564 -0.770733,-0.906744 -2.040174,-0.906744 -0.838738,0 -1.473459,0.408035 -0.634721,0.385366 -0.997419,1.201436 -0.340029,0.793401 -0.340029,1.994837 0,1.790819 0.770733,2.720232 0.770732,0.906744 2.040174,0.906744 z m 12.059701,2.153517 q -0.97475,0 -2.062843,-0.204018 -1.088093,-0.204017 -1.949499,-0.702726 -0.362698,-0.226686 -0.521378,-0.521378 -0.136012,-0.31736 -0.113343,-0.612052 0.04534,-0.317361 0.226686,-0.544047 0.204017,-0.226686 0.498709,-0.294691 0.31736,-0.06801 0.680058,0.113343 0.906744,0.430703 1.700145,0.612052 0.793401,0.15868 1.564133,0.15868 1.088093,0 1.609471,-0.362698 0.544046,-0.385366 0.544046,-0.997418 0,-0.521378 -0.362697,-0.793401 -0.340029,-0.294692 -1.042756,-0.430703 l -2.26686,-0.430704 q -1.405453,-0.272023 -2.153517,-1.020087 -0.725395,-0.770732 -0.725395,-1.972168 0,-1.088093 0.589384,-1.881494 0.612052,-0.793401 1.677476,-1.224104 1.065424,-0.430704 2.448209,-0.430704 0.997418,0 1.858825,0.226686 0.884075,0.204018 1.700145,0.65739 0.340029,0.181349 0.453372,0.47604 0.136012,0.294692 0.06801,0.612053 -0.06801,0.294691 -0.272023,0.544046 -0.204018,0.226686 -0.521378,0.294692 -0.294692,0.04534 -0.680058,-0.136012 -0.702727,-0.362697 -1.360116,-0.521378 -0.634721,-0.15868 -1.224105,-0.15868 -1.110761,0 -1.654807,0.385366 -0.521378,0.385367 -0.521378,1.020087 0,0.476041 0.31736,0.793401 0.317361,0.317361 0.97475,0.430704 l 2.26686,0.430703 q 1.473459,0.272023 2.221523,0.997419 0.770732,0.725395 0.770732,1.949499 0,1.654808 -1.29211,2.606889 -1.29211,0.929413 -3.445627,0.929413 z m 9.588832,4.035011 q -0.498709,0 -0.816069,-0.272024 -0.317361,-0.249354 -0.385366,-0.680058 -0.04534,-0.430703 0.15868,-0.906744 l 1.541465,-3.422958 v 1.178767 l -4.125686,-9.543481 q -0.204017,-0.498709 -0.136011,-0.929412 0.06801,-0.430704 0.408035,-0.680058 0.362697,-0.272023 0.974749,-0.272023 0.521378,0 0.838739,0.249354 0.31736,0.226686 0.566715,0.884076 l 3.060261,7.639318 h -0.680058 l 3.128266,-7.661987 q 0.249355,-0.634721 0.589384,-0.861407 0.340029,-0.249354 0.906744,-0.249354 0.498709,0 0.793401,0.272023 0.294692,0.249354 0.362698,0.680058 0.068,0.408035 -0.158681,0.906744 l -5.508469,12.581073 q -0.294692,0.634721 -0.634721,0.861407 -0.340029,0.226686 -0.884076,0.226686 z"
       id="text1"
       style="font-size:22.6686px;line-height:0.1;stroke-width:0.406514"
       aria-label="Glosy" /></g></svg>
